<?xml version="1.0" encoding="UTF-8"?>
<svg width="205px" height="35px" viewBox="0 0 205 35" version="1.1" xmlns="http://www.w3.org/2000/svg" xmlns:xlink="http://www.w3.org/1999/xlink">
    <!-- Generator: Sketch 42 (36781) - http://www.bohemiancoding.com/sketch -->
    <title>profiza-logo</title>
    <desc>Created with Sketch.</desc>
    <defs>
        <polygon id="path-1" points="22.866 0.001 0 0.001 0 34.94 45.732 34.94 45.732 0.001"></polygon>
    </defs>
    <g id="Page-1" stroke="none" stroke-width="1" fill="none" fill-rule="evenodd">
        <g id="profiza-logo">
            <g id="Group-5">
                <mask id="mask-2" fill="white">
                    <use xlink:href="#path-1"></use>
                </mask>
                <g id="Clip-2"></g>
                <polyline id="Fill-1" fill="#D8614A" mask="url(#mask-2)" points="36.575 6.005 16.736 25.844 25.892 35 45.732 15.161 36.575 6.005"></polyline>
                <polyline id="Fill-3" fill="#C64A39" mask="url(#mask-2)" points="27.996 14.584 16.782 25.91 25.877 35 34.999 25.873 27.996 14.584"></polyline>
                <polyline id="Fill-4" fill="#E9836D" mask="url(#mask-2)" points="9.127 0.001 0 9.128 25.872 35 34.999 25.873 9.127 0.001"></polyline>
            </g>
            <text id="-" font-family="LucidaGrande, Lucida Grande" font-size="12" font-weight="normal"></text>
            <path d="M74.459,16.437 C74.459,15.24 73.575,14.565 72.379,14.565 L68.765,14.565 L68.765,18.282 L72.379,18.282 C73.575,18.282 74.459,17.607 74.459,16.437 Z M64.293,28.007 L64.293,10.664 L72.976,10.664 C76.877,10.664 79.009,13.29 79.009,16.437 C79.009,19.557 76.877,22.183 72.976,22.183 L68.765,22.183 L68.765,28.007 L64.293,28.007 L64.293,28.007 Z" id="Fill-6" fill="#E9836D"></path>
            <path d="M96.377,16.41 C96.377,15.24 95.388,14.565 94.219,14.565 L90.683,14.565 L90.683,18.282 L94.219,18.282 C95.388,18.282 96.377,17.633 96.377,16.41 Z M95.883,28.007 L92.971,22.183 L90.683,22.183 L90.683,28.007 L86.21,28.007 L86.21,10.664 L94.894,10.664 C98.743,10.664 100.927,13.212 100.927,16.437 C100.927,19.452 99.081,21.065 97.469,21.637 L101.005,28.007 L95.883,28.007 L95.883,28.007 Z" id="Fill-7" fill="#E9836D"></path>
            <path d="M121.7,19.349 C121.7,16.515 119.854,14.33 116.994,14.33 C114.108,14.33 112.263,16.515 112.263,19.349 C112.263,22.157 114.108,24.366 116.994,24.366 C119.854,24.366 121.7,22.157 121.7,19.349 Z M107.712,19.349 C107.712,14.071 111.69,10.378 116.994,10.378 C122.299,10.378 126.251,14.071 126.251,19.349 C126.251,24.627 122.299,28.32 116.994,28.32 C111.69,28.32 107.712,24.627 107.712,19.349 L107.712,19.349 Z" id="Fill-8" fill="#E9836D"></path>
            <polyline id="Fill-9" fill="#E9836D" points="133.712 28.007 133.712 10.664 146.427 10.664 146.427 14.565 138.183 14.565 138.183 17.269 146.244 17.269 146.244 21.169 138.183 21.169 138.183 28.007 133.712 28.007"></polyline>
            <polygon id="Fill-10" fill="#E9836D" points="154.044 28.007 158.516 28.007 158.516 10.664 154.044 10.664"></polygon>
            <polyline id="Fill-11" fill="#C64A39" points="166.289 28.007 166.289 24.445 173.674 14.565 166.289 14.565 166.289 10.664 179.576 10.664 179.576 14.227 172.165 24.107 179.758 24.107 179.758 28.007 166.289 28.007"></polyline>
            <path d="M195.019,15.084 L192.809,21.611 L197.229,21.611 L195.019,15.084 Z M199.309,28.007 L198.451,25.511 L191.613,25.511 L190.755,28.007 L185.684,28.007 L192.211,10.664 L197.827,10.664 L204.38,28.007 L199.309,28.007 L199.309,28.007 Z" id="Fill-12" fill="#C64A39"></path>
        </g>
    </g>
</svg>